<?xml version="1.0" encoding="utf-8"?>
<!-- Generator: Adobe Illustrator 27.1.1, SVG Export Plug-In . SVG Version: 6.00 Build 0)  -->
<svg version="1.1" id="Capa_1" xmlns="http://www.w3.org/2000/svg" xmlns:xlink="http://www.w3.org/1999/xlink" x="0px" y="0px"
	 viewBox="0 0 386.1 48.6" style="enable-background:new 0 0 386.1 48.6;" xml:space="preserve">
<style type="text/css">
	.st0{fill:url(#SVGID_1_);}
	.st1{fill:url(#SVGID_00000179628357107235856850000001216426029578459528_);}
	.st2{fill:url(#SVGID_00000012452904844512300150000015135692851921481119_);}
	.st3{fill:url(#SVGID_00000078044701245367260750000004384292787617066378_);}
	.st4{fill:url(#SVGID_00000065067908975570773000000003397567830927020166_);}
	.st5{fill:url(#SVGID_00000044170429267287408080000011409382949236522405_);}
	.st6{fill:url(#SVGID_00000013895903360123330010000012621317476111637951_);}
	.st7{fill:url(#SVGID_00000086654390742703020770000005280744042057365176_);}
	.st8{fill:url(#SVGID_00000166667135885076371770000005128067621487454129_);}
	.st9{fill:url(#SVGID_00000177473172961050920040000002081304321324225172_);}
</style>
<g>
	<path d="M20,3.9h1.1c1.7,0,3.1,1.1,4.4,3.3L25.1,16c0,2.5,0.4,4.5,1.1,6c0.3,0,1.8-1.5,4.4-4.4c0.5-0.1,3.4-3,8.8-8.6
		c2-2.8,4.1-4.2,6.2-4.2l1.5-0.2c1.4,0.3,2.2,0.8,2.4,1.3c0.3,0,1,0.6,2,1.8v0.4c0,1.5-2.1,6.9-6.4,16.3c-1.5,3.5-2.4,5.3-2.9,5.3
		l0.2,0.2v0.2l-2.9,5.7c-0.3,0-1.4,2.4-3.5,7.3l-1.5,2H33v-0.4l-0.9,0.4c0-0.3-0.5-0.6-1.5-0.9l-0.4,0.4c-0.4,0-0.7-0.4-0.9-1.1
		c-0.6,0-0.9-0.2-0.9-0.4v-1.5c0-2.8,2.2-8.3,6.6-16.5c-2.3,2.1-4.5,4.8-6.6,7.9c-0.5,0-1.2,0.4-2,1.3h-0.2c-1.6-1.1-3-1.8-4.4-2
		c-1.5-1-2.8-4-4-9h-0.2C11.2,38,7.7,45.6,7,46.2H6.6l-1.1-0.7l-0.7,0.2l-0.2-0.2l-0.2,0.2l-0.4-0.9l-0.4,0.4l-0.2-0.2l-2,0.4
		C1,44.7,0.5,44.3,0,44.2v-0.9c0-3.5,4.2-13.5,12.6-29.9c2-6,3.6-9,4.8-9L20,3.9L20,3.9z"/>
	<path d="M59.9,4.2h1.1c2.3,0,4.1,1.2,5.5,3.6l0.2,0.9c0,1.2-1.6,4.7-4.7,10.7c-3.3,6.4-4.9,12.3-4.9,17.7v0.6
		c3.7-2.4,6.7-5.3,9-8.7c5.4-6.9,8.6-11.9,9.6-14.9l1.3-2.8c0.4,0,0.6-0.2,0.6-0.6l0.2-0.2h0.4v0.9h0.2c0.4-2.4,0.8-3.6,1.1-3.6h0.2
		v0.9h0.2V6.8h0.4v0.6c0.5-0.3,1.1-1.3,1.9-3.2h0.2c1.4,1.3,2.1,3.4,2.1,6.2c0,9.4-6,20-18.1,32c-2.3,1.4-4.9,2.2-7.9,2.2
		c-5.5,0-9.1-2-10.9-6L47.3,36v-1c0-5.6,1.1-10.6,3.4-14.9l5.5-13C57.4,5.2,58.6,4.2,59.9,4.2L59.9,4.2z"/>
	<path d="M120.8,4.1h1.5c1.9,0,3.6,0.9,4.8,2.6v0.7l-8.3,21.5c-2.1,3.8-4.1,9.1-6.2,16l-0.7,0.7h-0.7l-0.9-0.7l-0.2,0.2h-1.1
		l-1.1-0.7l-2.2,0.2l-1.8-2v-1.5c0-0.7,0.5-2.2,1.5-4.6L100,23l-1.8-5.3H98l-8.8,18.4c-1,2.1-1.8,4.5-2.2,7.2l0.2,0.2v0.2
		c-0.2,1.2-0.5,1.8-0.9,1.8h-0.7l-2.2-1.3H83l-0.9,0.2l-0.7-0.2l-0.4,0.4l-0.2-0.2h-0.2l-0.2,0.2l-2-2.6v-0.9
		c0-2.6,3.4-10.7,10.3-24.1L94,5.9c0.8-0.6,3.3-1.1,7.4-1.3c1,0,2,0.7,3.1,2.2V7c0,4.2,1.9,10.3,5.7,18.4c2.1-3.5,4.3-9.5,6.8-18
		c0.5-1.9,1.4-2.9,2.6-2.9C119.7,4.3,120.1,4.1,120.8,4.1L120.8,4.1z"/>
	<path d="M142.8,5.4h1.1c5.6,0,10.8,1.7,15.6,5.1c2,1.9,2.9,3.7,2.9,5.5c0,4-4.1,10-12.4,18.2c-4.4,3.2-8.7,5.8-13.1,7.6
		c-5,1.5-8.1,2.7-9.3,3.6l-2.3-0.2c-2.6,1.3-4.2,1.9-4.9,1.9l-0.2-0.2l0.6-1h-0.2l-1.3,0.4l-0.2-1.3l0.4-0.8h-0.2l-1.1,0.4l-0.2-0.2
		v-0.2l0.2-0.6H118l-0.8,0.2c-0.4,0-0.6-0.3-0.6-0.8c-0.7-0.1-1.1-0.3-1.1-0.6c0.6-0.7,1.5-1.2,2.8-1.7c2.4-1.8,5.7-7.6,9.9-17.3
		c2.5-5.8,3.8-9.2,3.8-9.9c-2.6,0-4.5-1.7-5.9-5.1C126.1,7,131.6,6.1,142.8,5.4L142.8,5.4z M133.5,33.8c12-5.6,17.9-10.9,17.9-15.8
		c0-3.3-2.6-5.3-7.8-6.1c-1,0-1.8,1.3-2.3,3.8L133.5,33.8z"/>
	<path d="M191.1,4.2h0.2c1.6,0,3.1,1.5,4.7,4.5l0.2,0.2V10c0,0.7-1.2,1.3-3.5,1.8V12c3.6,4.5,5.4,8.6,5.4,12.5v1.1
		c0,9.6-4.1,15.8-12.4,18.6c-2.8,0.8-5.2,1.1-7,1.1h-2.6c-7.3,0-12.5-3.7-15.8-11.2c-0.5-0.1-0.8-1.4-0.9-4v-1.6
		c0-7.2,5.2-13.8,15.7-19.7C181.7,5.8,187.1,4.2,191.1,4.2L191.1,4.2z M168.1,30.6v0.2c0,2.6,1.6,4.1,4.9,4.5h1.9
		c5.1,0,9.8-2.9,14.1-8.7c0.7-1.5,1.1-3.5,1.4-6c-0.1-2.1-0.4-3.4-0.7-3.8l0.2-0.7c-0.4-2.2-0.7-3.4-0.9-3.4c-4.6,0.6-9.9,3.6-16,9
		C169.7,24.8,168.1,27.8,168.1,30.6L168.1,30.6z"/>
	<path d="M243.3,3.5h1.9c9.5,0,15.1,3.1,16.8,9.4l0.2,1.3v0.6c0,1.9-4.3,5-12.8,9.3c2.1,9,3.2,15.3,3.2,18.9l0.2,0.2v0.2l-0.2,0.7
		l0.2,1.9l-0.2,0.2h-0.4c0-0.6-0.1-0.8-0.4-0.8c0,0.4-0.1,0.6-0.4,0.6h-0.4l-0.2-0.2h-0.2c-0.2,0.6-0.4,0.8-0.6,0.8l-1.1-0.2
		l-0.4,0.4c-0.1-0.7-0.5-1.1-1.1-1.1c-2.3-5.3-4.2-11.4-5.9-18.3l-9.6,3.2c-0.9,2-1.6,3.1-2.1,3.4l-0.2,1.1h-0.6l0.9-2.3v-0.2h-0.2
		l-1.1,2.3l0.4,0.4c-0.5,0-1.6,1.5-3.2,4.4c-0.2,0-0.6,0.9-1.3,2.8c-0.3,0-1,1.4-2.1,4.2H222c0-0.7-0.7-1.2-2.1-1.7l-0.4,0.4
		c0-0.3-0.2-0.4-0.7-0.4l-0.6,0.2c-0.3-0.8-0.7-1.2-1.3-1.3v-0.7c0-3.4,3.9-12.9,11.7-28.5c-3-2-4.5-3.6-4.5-4.9V9.1
		c0.1-0.8,2.7-2,7.9-3.8C232.7,4.1,236.5,3.5,243.3,3.5L243.3,3.5z M236.5,20.3h0.4c8.5-3.6,13.7-6.6,15.5-8.7v-0.2l-4.2-0.2h-0.4
		c-5.4,0-8.1,0.6-8.1,1.9C238,17.4,236.9,19.8,236.5,20.3L236.5,20.3z"/>
	<path d="M283.6,5c0,0.6,0.3,0.8,0.8,0.8v0.4h-0.6v0.2c0.7,0,1,0.1,1,0.4v0.2h-0.8c0,0.4,0.4,0.6,1.2,0.6v0.4h-0.6v0.2h2.5l1.9,1.1
		l-0.2,0.2v0.2c0.7,0,1,0.1,1,0.4c0,0.5-2.6,1.1-7.8,1.7c-1.8,0-5.1,1-10,2.9l-2.3,4.6h0.2c0.8-0.3,2.9-0.5,6.5-0.6l0.4,0.6
		l-0.6,0.2v0.2c1.1,0,1.7,0.1,1.7,0.4l-1,0.4V21h0.4l-0.2,0.6c0,0.7,0.5,1.3,1.7,1.7v0.2l-0.2,0.2v0.2c0.7,0,1,0.1,1,0.4v0.2
		c0,0.4-4.4,1.5-13.2,3.3c-1.1,0-2.5,2.1-4.2,6.3l15.1-2.5v0.4h0.2l1-0.2c0.2,0.7,0.5,1.1,1,1.1v0.6c-0.3,0-0.7,0.2-1,0.6h-0.4v0.2
		h1.3v0.4h-1l0.2,0.2v0.2l-0.2,0.2c2.1,0,3.2,0.3,3.3,1l-0.2,0.2c0.7,0.1,1,0.3,1,0.6c-1.2,0.8-5.4,1.8-12.6,3.1
		c-8.4,1.4-12.6,2.7-12.6,3.8c-0.2,0.7-0.8,1.4-1.9,1.9h-0.2l-1.2-1h-0.4l-1.1,0.2c0-0.4-0.7-0.7-2.1-1l-0.6,0.2l-0.2-0.2V44
		l0.2-0.6h-0.4l-0.2,0.2h-0.2l-0.2-0.2v-0.2c1.2-4.2,6.3-15.9,15.5-35.2c0-1.4,1-2.2,2.9-2.5l8.2,0.2L283.6,5L283.6,5z"/>
	<path d="M306.8,3l4.4,0.2h4.4c0.9,0,1.5,0.4,1.9,1.2l-0.2,0.2c0.8,0.1,1.1,0.3,1.1,0.7v0.2h-2.5v0.2h0.9v0.5h-0.4l0.2,0.2l-0.2,0.2
		v0.5l1.1,0.2v0.2l-0.2,0.2V8c0.9,0,1.4,0.6,1.4,1.8c0.6,0.1,0.9,0.3,0.9,0.7V11l-13.6,1.6c-1.2,0-2.1,1.5-2.8,4.4
		c-8.1,15.8-13,25.9-14.5,30.2c-0.9,0.9-1.7,1.4-2.3,1.4l-0.9-0.9c-0.9,0-1.4-0.4-1.4-1.2l-0.2,0.2h-0.2c0-0.4-0.8-1.1-2.3-2.1
		l-0.7-1.2c0-3.1,3.7-11.3,11.1-24.6l1.9-4.4l-8.5,1.4c-3.2,0-5.4-1.5-6.5-4.4l-0.7-2.8V8.3c0-1,0.6-1.9,1.8-2.8h3
		C287.5,5.5,295.5,4.7,306.8,3L306.8,3z"/>
	<path d="M335.7,3.5h1.9c9.5,0,15.1,3.1,16.8,9.4l0.2,1.3v0.6c0,1.9-4.3,5-12.8,9.3c2.1,9,3.2,15.3,3.2,18.9l0.2,0.2v0.2l-0.2,0.7
		l0.2,1.9l-0.2,0.2h-0.4c0-0.6-0.1-0.8-0.4-0.8c0,0.4-0.1,0.6-0.4,0.6h-0.4l-0.2-0.2h-0.2c-0.2,0.6-0.4,0.8-0.6,0.8l-1.1-0.2
		l-0.4,0.4c-0.1-0.7-0.5-1.1-1.1-1.1c-2.3-5.3-4.2-11.4-5.9-18.3l-9.6,3.2c-0.9,2-1.6,3.1-2.1,3.4l-0.2,1.1h-0.6l0.9-2.3v-0.2h-0.2
		l-1.1,2.3l0.4,0.4c-0.5,0-1.6,1.5-3.2,4.4c-0.2,0-0.6,0.9-1.3,2.8c-0.3,0-1,1.4-2.1,4.2h-0.2c0-0.7-0.7-1.2-2.1-1.7l-0.4,0.4
		c0-0.3-0.2-0.4-0.7-0.4l-0.6,0.2c-0.3-0.8-0.7-1.2-1.3-1.3v-0.7c0-3.4,3.9-12.9,11.7-28.5c-3-2-4.5-3.6-4.5-4.9V9.1
		c0.1-0.8,2.7-2,7.9-3.8C325.1,4.1,328.9,3.5,335.7,3.5L335.7,3.5z M328.9,20.3h0.4c8.5-3.6,13.7-6.6,15.5-8.7v-0.2l-4.2-0.2h-0.4
		c-5.4,0-8.1,0.6-8.1,1.9C330.4,17.4,329.3,19.8,328.9,20.3L328.9,20.3z"/>
	<path d="M379,4.2h0.2c1.5,0,3.1,1.5,4.7,4.5l0.2,0.2V10c0,0.7-1.2,1.3-3.5,1.8V12c3.6,4.5,5.4,8.6,5.4,12.5v1.1
		c0,9.6-4.1,15.8-12.5,18.6c-2.8,0.8-5.2,1.1-7,1.1H364c-7.3,0-12.5-3.7-15.8-11.2c-0.5-0.1-0.8-1.4-0.9-4v-1.6
		c0-7.2,5.2-13.8,15.7-19.7C369.6,5.8,375,4.2,379,4.2L379,4.2z M356,30.6v0.2c0,2.6,1.6,4.1,4.9,4.5h1.9c5.1,0,9.8-2.9,14.1-8.7
		c0.7-1.5,1.1-3.5,1.4-6c-0.1-2.1-0.4-3.4-0.7-3.8l0.2-0.7c-0.4-2.2-0.7-3.4-0.9-3.4c-4.6,0.6-9.9,3.6-16,9
		C357.6,24.8,356,27.8,356,30.6L356,30.6z"/>
</g>
<g>
	
		<linearGradient id="SVGID_1_" gradientUnits="userSpaceOnUse" x1="26.0468" y1="-13.84" x2="25.2768" y2="88.8" gradientTransform="matrix(1 0 0 -1 0 50)">
		<stop  offset="0" style="stop-color:#FCFF00"/>
		<stop  offset="0.27" style="stop-color:#FCAD51"/>
		<stop  offset="0.53" style="stop-color:#FD639B"/>
		<stop  offset="0.75" style="stop-color:#FE2DD1"/>
		<stop  offset="0.91" style="stop-color:#FE0CF2"/>
		<stop  offset="1" style="stop-color:#FF00FF"/>
	</linearGradient>
	<path class="st0" d="M20,0.9h1.1c1.7,0,3.1,1.1,4.4,3.3L25.1,13c0,2.5,0.4,4.5,1.1,6c0.3,0,1.8-1.5,4.4-4.4c0.5-0.1,3.4-3,8.8-8.6
		c2-2.8,4.1-4.2,6.2-4.2l1.5-0.2c1.4,0.3,2.2,0.8,2.4,1.3c0.3,0,1,0.6,2,1.8v0.4c0,1.5-2.1,6.9-6.4,16.3c-1.5,3.5-2.4,5.3-2.9,5.3
		l0.2,0.2v0.2l-2.9,5.7c-0.3,0-1.4,2.4-3.5,7.3l-1.5,2H33v-0.4l-0.9,0.4c0-0.3-0.5-0.6-1.5-0.9l-0.4,0.4c-0.4,0-0.7-0.4-0.9-1.1
		c-0.6,0-0.9-0.2-0.9-0.4v-1.5c0-2.8,2.2-8.4,6.6-16.5c-2.3,2.1-4.5,4.8-6.6,7.9c-0.5,0-1.2,0.4-2,1.3h-0.2c-1.6-1.1-3-1.8-4.4-2
		c-1.5-1-2.8-4-4-9h-0.2C11.2,35,7.7,42.6,7,43.2H6.6l-1.1-0.7l-0.7,0.2l-0.2-0.2l-0.2,0.2l-0.4-0.9l-0.4,0.4l-0.2-0.2l-2,0.4
		C1,41.7,0.5,41.3,0,41.2v-0.9c0-3.5,4.2-13.5,12.6-29.9c2-6,3.6-9,4.8-9L20,0.9L20,0.9z"/>
	
		<linearGradient id="SVGID_00000088832251143352758960000017673904774590600334_" gradientUnits="userSpaceOnUse" x1="66.2262" y1="-13.5402" x2="65.4662" y2="89.0998" gradientTransform="matrix(1 0 0 -1 0 50)">
		<stop  offset="0" style="stop-color:#FCFF00"/>
		<stop  offset="0.27" style="stop-color:#FCAD51"/>
		<stop  offset="0.53" style="stop-color:#FD639B"/>
		<stop  offset="0.75" style="stop-color:#FE2DD1"/>
		<stop  offset="0.91" style="stop-color:#FE0CF2"/>
		<stop  offset="1" style="stop-color:#FF00FF"/>
	</linearGradient>
	<path style="fill:url(#SVGID_00000088832251143352758960000017673904774590600334_);" d="M59.9,1.2h1.1c2.3,0,4.1,1.2,5.5,3.6
		l0.2,0.8c0,1.2-1.6,4.7-4.7,10.7c-3.3,6.4-4.9,12.3-4.9,17.7v0.6c3.7-2.4,6.7-5.3,9-8.7c5.4-6.9,8.6-11.9,9.6-14.9l1.3-2.8
		c0.4,0,0.6-0.2,0.6-0.6l0.2-0.2h0.4v0.8h0.2c0.4-2.4,0.8-3.6,1.1-3.6h0.2v0.8h0.2V3.8h0.4v0.6c0.5-0.3,1.1-1.3,1.9-3.2h0.2
		c1.4,1.3,2.1,3.4,2.1,6.2c0,9.4-6,20-18.1,32c-2.3,1.4-4.9,2.2-7.9,2.2c-5.5,0-9.1-2-10.9-6L47.3,33v-1c0-5.6,1.1-10.6,3.4-14.9
		l5.5-13C57.4,2.2,58.6,1.2,59.9,1.2L59.9,1.2z"/>
	
		<linearGradient id="SVGID_00000157275270887990333750000007098896907537653384_" gradientUnits="userSpaceOnUse" x1="103.1198" y1="-13.2601" x2="102.3598" y2="89.3799" gradientTransform="matrix(1 0 0 -1 0 50)">
		<stop  offset="0" style="stop-color:#FCFF00"/>
		<stop  offset="0.27" style="stop-color:#FCAD51"/>
		<stop  offset="0.53" style="stop-color:#FD639B"/>
		<stop  offset="0.75" style="stop-color:#FE2DD1"/>
		<stop  offset="0.91" style="stop-color:#FE0CF2"/>
		<stop  offset="1" style="stop-color:#FF00FF"/>
	</linearGradient>
	<path style="fill:url(#SVGID_00000157275270887990333750000007098896907537653384_);" d="M120.8,1.1h1.5c1.9,0,3.6,0.9,4.8,2.6v0.7
		l-8.3,21.5c-2.1,3.8-4.1,9.1-6.2,16l-0.7,0.7h-0.7l-0.9-0.7l-0.2,0.2h-1.1l-1.1-0.7l-2.2,0.2l-1.8-2v-1.5c0-0.7,0.5-2.2,1.5-4.6
		L100,20l-1.8-5.3H98l-8.8,18.4c-1,2.1-1.8,4.5-2.2,7.2l0.2,0.2v0.2c-0.2,1.2-0.5,1.8-0.9,1.8h-0.7l-2.2-1.3H83l-0.9,0.2l-0.7-0.2
		l-0.4,0.4l-0.2-0.2h-0.2l-0.2,0.2l-2-2.6v-0.9c0-2.6,3.4-10.7,10.3-24.1L94,2.9c0.8-0.6,3.3-1.1,7.4-1.3c1,0,2,0.7,3.1,2.2V4
		c0,4.1,1.9,10.3,5.7,18.4c2.1-3.5,4.3-9.5,6.8-18c0.5-1.9,1.4-2.9,2.6-2.9C119.7,1.3,120.1,1.1,120.8,1.1L120.8,1.1z"/>
	
		<linearGradient id="SVGID_00000163045080478837505160000008312730760012245409_" gradientUnits="userSpaceOnUse" x1="139.2331" y1="-12.9901" x2="138.4731" y2="89.6499" gradientTransform="matrix(1 0 0 -1 0 50)">
		<stop  offset="0" style="stop-color:#FCFF00"/>
		<stop  offset="0.27" style="stop-color:#FCAD51"/>
		<stop  offset="0.53" style="stop-color:#FD639B"/>
		<stop  offset="0.75" style="stop-color:#FE2DD1"/>
		<stop  offset="0.91" style="stop-color:#FE0CF2"/>
		<stop  offset="1" style="stop-color:#FF00FF"/>
	</linearGradient>
	<path style="fill:url(#SVGID_00000163045080478837505160000008312730760012245409_);" d="M142.8,2.4h1.1c5.6,0,10.8,1.7,15.6,5.1
		c2,1.9,2.9,3.7,2.9,5.5c0,4-4.1,10-12.4,18.2c-4.4,3.2-8.7,5.7-13.1,7.6c-5,1.5-8.1,2.7-9.3,3.6l-2.3-0.2c-2.6,1.3-4.2,1.9-4.9,1.9
		l-0.2-0.2l0.6-1h-0.2l-1.3,0.4l-0.2-1.3l0.4-0.8h-0.2l-1.1,0.4l-0.2-0.2v-0.2l0.2-0.6H118l-0.8,0.2c-0.4,0-0.6-0.3-0.6-0.8
		c-0.7-0.1-1.1-0.3-1.1-0.6c0.6-0.7,1.5-1.2,2.8-1.7c2.4-1.8,5.7-7.6,9.9-17.3c2.5-5.8,3.8-9.2,3.8-9.9c-2.6,0-4.5-1.7-5.9-5.1
		C126.1,4,131.6,3.1,142.8,2.4L142.8,2.4z M133.5,30.8c12-5.6,17.9-10.9,17.9-15.8c0-3.3-2.6-5.3-7.8-6.1c-1,0-1.8,1.3-2.3,3.8
		L133.5,30.8z"/>
	
		<linearGradient id="SVGID_00000071529259295661021090000000466017048591343780_" gradientUnits="userSpaceOnUse" x1="179.0528" y1="-12.7001" x2="178.2828" y2="89.9399" gradientTransform="matrix(1 0 0 -1 0 50)">
		<stop  offset="0" style="stop-color:#FCFF00"/>
		<stop  offset="0.27" style="stop-color:#FCAD51"/>
		<stop  offset="0.53" style="stop-color:#FD639B"/>
		<stop  offset="0.75" style="stop-color:#FE2DD1"/>
		<stop  offset="0.91" style="stop-color:#FE0CF2"/>
		<stop  offset="1" style="stop-color:#FF00FF"/>
	</linearGradient>
	<path style="fill:url(#SVGID_00000071529259295661021090000000466017048591343780_);" d="M191.1,1.2h0.2c1.6,0,3.1,1.5,4.7,4.5
		l0.2,0.2V7c0,0.7-1.2,1.3-3.5,1.8V9c3.6,4.5,5.4,8.6,5.4,12.5v1.1c0,9.6-4.1,15.8-12.4,18.6c-2.8,0.8-5.2,1.1-7,1.1h-2.6
		c-7.3,0-12.5-3.7-15.8-11.2c-0.5-0.1-0.8-1.4-0.9-4v-1.6c0-7.2,5.2-13.8,15.7-19.7C181.7,2.8,187.1,1.2,191.1,1.2L191.1,1.2z
		 M168.1,27.6v0.2c0,2.6,1.6,4.1,4.9,4.5h1.9c5.1,0,9.8-2.9,14.1-8.7c0.7-1.5,1.1-3.5,1.4-6c-0.1-2.1-0.4-3.4-0.7-3.8l0.2-0.7
		c-0.4-2.2-0.7-3.4-0.9-3.4c-4.6,0.6-9.9,3.6-16,9C169.7,21.9,168.1,24.8,168.1,27.6L168.1,27.6z"/>
	
		<linearGradient id="SVGID_00000128448561146859895520000007481744675839672733_" gradientUnits="userSpaceOnUse" x1="239.8371" y1="-12.2399" x2="239.0771" y2="90.4001" gradientTransform="matrix(1 0 0 -1 0 50)">
		<stop  offset="0" style="stop-color:#FCFF00"/>
		<stop  offset="0.27" style="stop-color:#FCAD51"/>
		<stop  offset="0.53" style="stop-color:#FD639B"/>
		<stop  offset="0.75" style="stop-color:#FE2DD1"/>
		<stop  offset="0.91" style="stop-color:#FE0CF2"/>
		<stop  offset="1" style="stop-color:#FF00FF"/>
	</linearGradient>
	<path style="fill:url(#SVGID_00000128448561146859895520000007481744675839672733_);" d="M243.3,0.5h1.9c9.5,0,15.1,3.1,16.8,9.4
		l0.2,1.3v0.6c0,1.9-4.3,5-12.8,9.3c2.1,9,3.2,15.3,3.2,18.9l0.2,0.2v0.2l-0.2,0.7l0.2,1.9l-0.2,0.2h-0.4c0-0.6-0.1-0.8-0.4-0.8
		c0,0.4-0.1,0.6-0.4,0.6h-0.4l-0.2-0.2h-0.2c-0.2,0.6-0.4,0.8-0.6,0.8l-1.1-0.2l-0.4,0.4c-0.1-0.7-0.5-1.1-1.1-1.1
		c-2.3-5.3-4.2-11.4-5.9-18.3l-9.6,3.2c-0.9,2-1.6,3.1-2.1,3.4l-0.2,1.1h-0.6l0.9-2.3v-0.2h-0.2l-1.1,2.3l0.4,0.4
		c-0.5,0-1.6,1.5-3.2,4.4c-0.2,0-0.6,0.9-1.3,2.8c-0.3,0-1,1.4-2.1,4.2H222c0-0.7-0.7-1.2-2.1-1.7l-0.4,0.4c0-0.3-0.2-0.4-0.7-0.4
		l-0.6,0.2c-0.3-0.8-0.7-1.2-1.3-1.3v-0.7c0-3.4,3.9-12.9,11.7-28.5c-3-2-4.5-3.6-4.5-4.9V6.1c0.1-0.8,2.7-2,7.9-3.8
		C232.7,1.1,236.5,0.5,243.3,0.5L243.3,0.5z M236.5,17.3h0.4c8.5-3.6,13.7-6.6,15.5-8.7V8.4l-4.2-0.2h-0.4c-5.4,0-8.1,0.6-8.1,1.9
		C238,14.4,236.9,16.8,236.5,17.3L236.5,17.3z"/>
	
		<linearGradient id="SVGID_00000063591920447445855790000003889725304577100434_" gradientUnits="userSpaceOnUse" x1="269.6663" y1="-12.02" x2="268.8963" y2="90.62" gradientTransform="matrix(1 0 0 -1 0 50)">
		<stop  offset="0" style="stop-color:#FCFF00"/>
		<stop  offset="0.27" style="stop-color:#FCAD51"/>
		<stop  offset="0.53" style="stop-color:#FD639B"/>
		<stop  offset="0.75" style="stop-color:#FE2DD1"/>
		<stop  offset="0.91" style="stop-color:#FE0CF2"/>
		<stop  offset="1" style="stop-color:#FF00FF"/>
	</linearGradient>
	<path style="fill:url(#SVGID_00000063591920447445855790000003889725304577100434_);" d="M283.6,2c0,0.5,0.3,0.8,0.8,0.8v0.4h-0.6
		v0.2c0.7,0,1,0.1,1,0.4v0.2h-0.8c0,0.4,0.4,0.6,1.2,0.6v0.4h-0.6v0.2h2.5l1.9,1l-0.2,0.2v0.2c0.7,0,1,0.2,1,0.4
		c0,0.5-2.6,1.1-7.8,1.7c-1.8,0-5.1,1-10,2.9l-2.3,4.6h0.2c0.8-0.3,2.9-0.5,6.5-0.6l0.4,0.6l-0.6,0.2v0.2c1.1,0,1.7,0.1,1.7,0.4
		l-1,0.4V18h0.4l-0.2,0.6c0,0.7,0.5,1.3,1.7,1.7v0.2l-0.2,0.2v0.2c0.7,0,1,0.1,1,0.4v0.2c0,0.4-4.4,1.5-13.2,3.3
		c-1.1,0-2.5,2.1-4.2,6.3l15.1-2.5v0.4h0.2l1-0.2c0.2,0.7,0.5,1,1,1v0.6c-0.3,0-0.7,0.2-1,0.6h-0.4v0.2h1.3v0.4h-1l0.2,0.2v0.2
		l-0.2,0.2c2.1,0,3.2,0.3,3.3,1l-0.2,0.2c0.7,0.1,1,0.3,1,0.6c-1.2,0.8-5.4,1.8-12.6,3.1c-8.4,1.4-12.6,2.7-12.6,3.8
		c-0.2,0.7-0.8,1.4-1.9,1.9h-0.2l-1.2-1h-0.4l-1.1,0.2c0-0.4-0.7-0.7-2.1-1l-0.6,0.2l-0.2-0.2V41l0.2-0.6h-0.4l-0.2,0.2h-0.2
		l-0.2-0.2v-0.2c1.2-4.2,6.3-15.9,15.5-35.2c0-1.4,1-2.2,2.9-2.5l8.2,0.2L283.6,2L283.6,2z"/>
	
		<linearGradient id="SVGID_00000036242695842936587240000011179294556634185375_" gradientUnits="userSpaceOnUse" x1="299.0634" y1="-11.7998" x2="298.3034" y2="90.8402" gradientTransform="matrix(1 0 0 -1 0 50)">
		<stop  offset="0" style="stop-color:#FCFF00"/>
		<stop  offset="0.27" style="stop-color:#FCAD51"/>
		<stop  offset="0.53" style="stop-color:#FD639B"/>
		<stop  offset="0.75" style="stop-color:#FE2DD1"/>
		<stop  offset="0.91" style="stop-color:#FE0CF2"/>
		<stop  offset="1" style="stop-color:#FF00FF"/>
	</linearGradient>
	<path style="fill:url(#SVGID_00000036242695842936587240000011179294556634185375_);" d="M306.8,0l4.4,0.2h4.4
		c0.9,0,1.5,0.4,1.9,1.2l-0.2,0.2c0.8,0,1.1,0.3,1.1,0.7v0.2h-2.5v0.2h0.9v0.5h-0.4l0.2,0.2l-0.2,0.2v0.5l1.1,0.2v0.2l-0.2,0.2V5
		c0.9,0,1.4,0.6,1.4,1.8c0.6,0.1,0.9,0.3,0.9,0.7V8l-13.6,1.6c-1.2,0-2.1,1.5-2.8,4.4c-8.1,15.8-13,25.9-14.5,30.2
		c-0.9,0.9-1.7,1.4-2.3,1.4l-0.9-0.9c-0.9,0-1.4-0.4-1.4-1.2l-0.2,0.2h-0.2c0-0.4-0.8-1.1-2.3-2.1l-0.7-1.2
		c0-3.1,3.7-11.3,11.1-24.6l1.9-4.4l-8.5,1.4c-3.2,0-5.4-1.5-6.5-4.4l-0.7-2.8V5.3c0-1,0.6-1.9,1.8-2.8h3
		C287.5,2.5,295.5,1.7,306.8,0L306.8,0z"/>
	
		<linearGradient id="SVGID_00000059993476353005350670000000839438454031739265_" gradientUnits="userSpaceOnUse" x1="332.2155" y1="-11.55" x2="331.4455" y2="91.09" gradientTransform="matrix(1 0 0 -1 0 50)">
		<stop  offset="0" style="stop-color:#FCFF00"/>
		<stop  offset="0.27" style="stop-color:#FCAD51"/>
		<stop  offset="0.53" style="stop-color:#FD639B"/>
		<stop  offset="0.75" style="stop-color:#FE2DD1"/>
		<stop  offset="0.91" style="stop-color:#FE0CF2"/>
		<stop  offset="1" style="stop-color:#FF00FF"/>
	</linearGradient>
	<path style="fill:url(#SVGID_00000059993476353005350670000000839438454031739265_);" d="M335.7,0.5h1.9c9.5,0,15.1,3.1,16.8,9.4
		l0.2,1.3v0.6c0,1.9-4.3,5-12.8,9.3c2.1,9,3.2,15.3,3.2,18.9l0.2,0.2v0.2l-0.2,0.7l0.2,1.9l-0.2,0.2h-0.4c0-0.6-0.1-0.8-0.4-0.8
		c0,0.4-0.1,0.6-0.4,0.6h-0.4l-0.2-0.2h-0.2c-0.2,0.6-0.4,0.8-0.6,0.8l-1.1-0.2l-0.4,0.4c-0.1-0.7-0.5-1.1-1.1-1.1
		c-2.3-5.3-4.2-11.4-5.9-18.3l-9.6,3.2c-0.9,2-1.6,3.1-2.1,3.4l-0.2,1.1h-0.6l0.9-2.3v-0.2h-0.2l-1.1,2.3l0.4,0.4
		c-0.5,0-1.6,1.5-3.2,4.4c-0.2,0-0.6,0.9-1.3,2.8c-0.3,0-1,1.4-2.1,4.2h-0.2c0-0.7-0.7-1.2-2.1-1.7l-0.4,0.4c0-0.3-0.2-0.4-0.7-0.4
		l-0.6,0.2c-0.3-0.8-0.7-1.2-1.3-1.3v-0.7c0-3.4,3.9-12.9,11.7-28.5c-3-2-4.5-3.6-4.5-4.9V6.1c0.1-0.8,2.7-2,7.9-3.8
		C325.1,1.1,328.9,0.5,335.7,0.5L335.7,0.5z M328.9,17.3h0.4c8.5-3.6,13.7-6.6,15.5-8.7V8.4l-4.2-0.2h-0.4c-5.4,0-8.1,0.6-8.1,1.9
		C330.4,14.4,329.3,16.8,328.9,17.3L328.9,17.3z"/>
	
		<linearGradient id="SVGID_00000018235252491438512180000009151496605038584205_" gradientUnits="userSpaceOnUse" x1="366.9486" y1="-11.2901" x2="366.1886" y2="91.3499" gradientTransform="matrix(1 0 0 -1 0 50)">
		<stop  offset="0" style="stop-color:#FCFF00"/>
		<stop  offset="0.27" style="stop-color:#FCAD51"/>
		<stop  offset="0.53" style="stop-color:#FD639B"/>
		<stop  offset="0.75" style="stop-color:#FE2DD1"/>
		<stop  offset="0.91" style="stop-color:#FE0CF2"/>
		<stop  offset="1" style="stop-color:#FF00FF"/>
	</linearGradient>
	<path style="fill:url(#SVGID_00000018235252491438512180000009151496605038584205_);" d="M379,1.2h0.2c1.5,0,3.1,1.5,4.7,4.5
		l0.2,0.2V7c0,0.7-1.2,1.3-3.5,1.8V9c3.6,4.5,5.4,8.6,5.4,12.5v1.1c0,9.6-4.1,15.8-12.5,18.6c-2.8,0.8-5.2,1.1-7,1.1H364
		c-7.3,0-12.5-3.7-15.8-11.2c-0.5-0.1-0.8-1.4-0.9-4v-1.6c0-7.2,5.2-13.8,15.7-19.7C369.6,2.8,375,1.2,379,1.2L379,1.2z M356,27.6
		v0.2c0,2.6,1.6,4.1,4.9,4.5h1.9c5.1,0,9.8-2.9,14.1-8.7c0.7-1.5,1.1-3.5,1.4-6c-0.1-2.1-0.4-3.4-0.7-3.8l0.2-0.7
		c-0.4-2.2-0.7-3.4-0.9-3.4c-4.6,0.6-9.9,3.6-16,9C357.6,21.9,356,24.8,356,27.6L356,27.6z"/>
</g>
</svg>
